HIERARCHY
ROOT Pelvis
{
	OFFSET 0.000000 0.000000 0.000000
	CHANNELS 6 Xposition Yposition Zposition Xrotation Yrotation Zrotation
	JOINT LeftUpLeg_virtual
	{
		OFFSET 0.000000 0.000000 0.000000
		CHANNELS 3 Xrotation Yrotation Zrotation
		JOINT LeftUpLeg
		{
			OFFSET 18.735201 -5.666702 -4.541200
			CHANNELS 3 Xrotation Yrotation Zrotation
			JOINT LeftLeg
			{
				OFFSET -0.021200 -31.938179 0.493100
				CHANNELS 3 Xrotation Yrotation Zrotation
				JOINT LeftFoot
				{
					OFFSET 0.021200 -31.938179 -4.336299
					CHANNELS 3 Xrotation Yrotation Zrotation
					JOINT LeftToeBase
					{
						OFFSET 0.943001 -26.722000 15.023500
						CHANNELS 3 Xrotation Yrotation Zrotation
						End Site
						{
							OFFSET 0 0 0
						}
					}
				}
			}
		}
	}
	JOINT RightUpLeg_virtual
	{
		OFFSET 0.000000 0.000000 0.000000
		CHANNELS 3 Xrotation Yrotation Zrotation
		JOINT RightUpLeg
		{
			OFFSET -18.735201 -5.666702 -4.541200
			CHANNELS 3 Xrotation Yrotation Zrotation
			JOINT RightLeg
			{
				OFFSET 0.018946 -31.938133 0.493100
				CHANNELS 3 Xrotation Yrotation Zrotation
				JOINT RightFoot
				{
					OFFSET -0.018946 -31.938126 -4.336299
					CHANNELS 3 Xrotation Yrotation Zrotation
					JOINT RightToeBase
					{
						OFFSET -0.943001 -26.722004 15.023500
						CHANNELS 3 Xrotation Yrotation Zrotation
						End Site
						{
							OFFSET 0 0 0
						}
					}
				}
			}
		}
	}
	JOINT Hips_virtual
	{
		OFFSET 0.000000 0.000000 0.000000
		CHANNELS 3 Xrotation Yrotation Zrotation
		JOINT Hips
		{
			OFFSET -0.000000 -0.000000 -0.000000
			CHANNELS 3 Xrotation Yrotation Zrotation
			JOINT Spine
			{
				OFFSET 0.000000 10.199997 -0.299500
				CHANNELS 3 Xrotation Yrotation Zrotation
				JOINT Spine1
				{
					OFFSET 0.000000 11.900002 -1.516600
					CHANNELS 3 Xrotation Yrotation Zrotation
					JOINT Spine2
					{
						OFFSET 0.000000 13.600006 -2.842500
						CHANNELS 3 Xrotation Yrotation Zrotation
						JOINT Neck_virtual
						{
							OFFSET 0.000000 0.000000 0.000000
							CHANNELS 3 Xrotation Yrotation Zrotation
							JOINT Neck
							{
								OFFSET 0.000000 9.624100 -2.890100
								CHANNELS 3 Xrotation Yrotation Zrotation
								JOINT Head
								{
									OFFSET 0.000000 14.068802 -1.351900
									CHANNELS 3 Xrotation Yrotation Zrotation
									End Site
									{
										OFFSET 0 0 0
									}
								}
							}
						}
						JOINT LeftShoulder_virtual
						{
							OFFSET 0.000000 0.000000 0.000000
							CHANNELS 3 Xrotation Yrotation Zrotation
							JOINT LeftShoulder
							{
								OFFSET 15.263000 10.923401 -0.547700
								CHANNELS 3 Xrotation Yrotation Zrotation
								JOINT LeftArm
								{
									OFFSET 25.438599 -2.830597 -13.032500
									CHANNELS 3 Xrotation Yrotation Zrotation
									JOINT LeftForeArm
									{
										OFFSET 29.960503 0.000000 0.000000
										CHANNELS 3 Xrotation Yrotation Zrotation
										JOINT LeftHand
										{
											OFFSET 27.849251 0.000000 0.000000
											CHANNELS 3 Xrotation Yrotation Zrotation
											End Site
											{
												OFFSET 0 0 0
											}
										}
									}
								}
							}
						}
						JOINT RightShoulder_virtual
						{
							OFFSET 0.000000 0.000000 0.000000
							CHANNELS 3 Xrotation Yrotation Zrotation
							JOINT RightShoulder
							{
								OFFSET -15.263000 10.923401 -0.547700
								CHANNELS 3 Xrotation Yrotation Zrotation
								JOINT RightArm
								{
									OFFSET -25.438599 -2.830597 -13.032500
									CHANNELS 3 Xrotation Yrotation Zrotation
									JOINT RightForeArm
									{
										OFFSET -29.960503 0.000000 0.000000
										CHANNELS 3 Xrotation Yrotation Zrotation
										JOINT RightHand
										{
											OFFSET -27.849251 0.000000 0.000000
											CHANNELS 3 Xrotation Yrotation Zrotation
											End Site
											{
												OFFSET 0 0 0
											}
										}
									}
								}
							}
						}
					}
				}
			}
		}
	}
}
MOTION
Frames: 14
Frame Time: 0.03333333
-232.624725 94.000732 -7.217358 0.000000 0.000000 0.000000 -0.249733 -1.879759 0.127385 -16.766036 14.091618 13.021301 19.535082 -10.109710 -0.030650 -6.439293 -10.996892 -8.172560 0.000000 0.000000 0.000000 -0.249733 -1.879759 0.127385 -7.229713 -8.304833 -10.538424 20.261049 0.448064 3.984451 -13.042786 -2.761028 5.233633 0.000000 0.000000 0.000000 -0.249733 -1.879759 0.127385 0.000000 0.000000 0.000000 1.358597 0.239809 0.528599 1.526172 0.604860 0.276834 0.000000 0.000000 0.000000 1.528457 0.599782 0.275481 0.959658 -0.321840 -0.128747 0.000000 0.000000 0.000000 1.528457 0.599782 0.275481 0.680081 -3.439144 -11.860527 7.201843 -16.916697 -65.380258 0.000004 -20.680380 -0.000002 0.000000 0.000000 0.000000 1.528457 0.599782 0.275481 0.475742 8.188372 13.746942 13.305188 7.816371 61.653338 0.000008 31.239045 -0.000013 0.000000 0.000000 0.000000 
-232.608917 93.983643 -7.203724 0.000000 0.000000 0.000000 -0.220995 -1.876226 0.136364 -16.829631 14.089812 13.004681 19.633645 -10.115333 -0.050012 -6.492760 -10.993189 -8.085908 0.000000 0.000000 0.000000 -0.220995 -1.876226 0.136364 -7.313540 -8.342087 -10.594315 20.327447 0.515379 4.008047 -13.017472 -2.761542 5.231635 0.000000 0.000000 0.000000 -0.220995 -1.876226 0.136364 0.000000 0.000000 0.000000 1.367633 0.243535 0.524860 1.531444 0.606262 0.276090 0.000000 0.000000 0.000000 1.533718 0.600987 0.273807 0.933782 -0.321561 -0.141689 0.000000 0.000000 0.000000 1.533718 0.600987 0.273807 0.675228 -3.107452 -11.968066 6.895878 -17.408924 -64.965597 -0.000001 -21.235270 0.000015 0.000000 0.000000 0.000000 1.533718 0.600987 0.273807 0.473370 8.054808 13.883103 13.604480 8.269889 60.830894 0.000003 32.298974 -0.000001 0.000000 0.000000 0.000000 
-232.588135 93.965958 -7.196503 0.000000 0.000000 0.000000 -0.173687 -1.887561 0.147176 -16.919205 14.083191 13.004020 19.730292 -10.131664 -0.077297 -6.529197 -10.963390 -8.043176 0.000000 0.000000 0.000000 -0.173687 -1.887561 0.147176 -7.427745 -8.355780 -10.645198 20.406326 0.573659 4.014648 -13.003467 -2.765118 5.242347 0.000000 0.000000 0.000000 -0.173687 -1.887561 0.147176 0.000000 0.000000 0.000000 1.375218 0.256318 0.523169 1.534144 0.618928 0.275135 0.000000 0.000000 0.000000 1.536387 0.613600 0.273539 0.898846 -0.319901 -0.157086 0.000000 0.000000 0.000000 1.536387 0.613600 0.273539 0.674981 -2.709238 -11.957097 6.658604 -17.652580 -64.530056 -0.000001 -22.655393 0.000004 0.000000 0.000000 0.000000 1.536387 0.613600 0.273539 0.480198 7.824793 13.908635 13.803062 8.765856 60.021250 -0.000004 33.727426 0.000018 0.000000 0.000000 0.000000 
-232.561096 93.955032 -7.199688 0.000000 0.000000 0.000000 -0.124185 -1.911273 0.160778 -16.988058 14.080236 12.989334 19.803502 -10.142742 -0.102558 -6.586897 -10.919652 -8.002533 0.000000 0.000000 0.000000 -0.124185 -1.911273 0.160778 -7.536074 -8.355349 -10.689795 20.471983 0.622041 4.003671 -13.016704 -2.773331 5.264928 0.000000 0.000000 0.000000 -0.124185 -1.911273 0.160778 0.000000 0.000000 0.000000 1.383435 0.276060 0.521230 1.538205 0.645311 0.273751 0.000000 0.000000 0.000000 1.540385 0.640241 0.273648 0.863351 -0.316754 -0.170712 0.000000 0.000000 0.000000 1.540385 0.640241 0.273648 0.681320 -2.265466 -11.771151 6.596426 -17.554466 -64.079947 -0.000007 -25.201800 -0.000006 0.000000 0.000000 0.000000 1.540385 0.640241 0.273648 0.498076 7.530344 13.753908 13.999237 9.313927 59.251980 0.000002 35.758707 -0.000033 0.000000 0.000000 0.000000 
-232.526321 93.957207 -7.217571 0.000000 0.000000 0.000000 -0.090001 -1.940064 0.177897 -17.001821 14.079581 12.945439 19.818409 -10.142454 -0.116202 -6.647938 -10.867986 -7.969816 0.000000 0.000000 0.000000 -0.090001 -1.940064 0.177897 -7.605229 -8.353834 -10.727207 20.500630 0.661561 3.976058 -13.063019 -2.785376 5.296453 0.000000 0.000000 0.000000 -0.090001 -1.940064 0.177897 0.000000 0.000000 0.000000 1.392352 0.297675 0.519662 1.546219 0.684569 0.271725 0.000000 0.000000 0.000000 1.548311 0.680139 0.273104 0.839436 -0.311526 -0.178878 0.000000 0.000000 0.000000 1.548311 0.680139 0.273104 0.693740 -1.794103 -11.392940 6.723561 -17.114374 -63.661126 -0.000005 -28.975158 0.000004 0.000000 0.000000 0.000000 1.548311 0.680139 0.273104 0.524891 7.233768 13.397729 14.296289 9.848242 58.493993 -0.000018 38.634514 0.000031 0.000000 0.000000 0.000000 
-232.483505 93.975220 -7.254295 0.000000 0.000000 0.000000 -0.076062 -1.968536 0.198294 -16.950974 14.074891 12.864641 19.756812 -10.126537 -0.113329 -6.696466 -10.811031 -7.948185 0.000000 0.000000 0.000000 -0.076062 -1.968536 0.198294 -7.628943 -8.352558 -10.756319 20.481523 0.697233 3.933167 -13.136316 -2.799571 5.333369 0.000000 0.000000 0.000000 -0.076062 -1.968536 0.198294 0.000000 0.000000 0.000000 1.395888 0.320499 0.521033 1.554679 0.738964 0.268838 0.000000 0.000000 0.000000 1.556646 0.735504 0.270877 0.835945 -0.304421 -0.179500 0.000000 0.000000 0.000000 1.556646 0.735504 0.270877 0.710153 -1.301569 -10.844530 6.960871 -16.387017 -63.356876 -0.000000 -33.923241 -0.000005 0.000000 0.000000 0.000000 1.556646 0.735504 0.270877 0.556436 6.996132 12.875100 14.714756 10.245553 57.695496 0.000010 42.448625 -0.000006 0.000000 0.000000 0.000000 
-232.433395 94.006134 -7.313980 0.000000 0.000000 0.000000 -0.065152 -1.995336 0.220320 -16.888667 14.043399 12.781137 19.611894 -10.115569 -0.102713 -6.643754 -10.732490 -8.029593 0.000000 0.000000 0.000000 -0.065152 -1.995336 0.220320 -7.638039 -8.350611 -10.774780 20.421181 0.733778 3.875521 -13.221122 -2.813847 5.372303 0.000000 0.000000 0.000000 -0.065152 -1.995336 0.220320 0.000000 0.000000 0.000000 1.380855 0.351493 0.528919 1.552735 0.816360 0.263448 0.000000 0.000000 0.000000 1.554472 0.814354 0.264976 0.855239 -0.296614 -0.173181 0.000000 0.000000 0.000000 1.554472 0.814354 0.264976 0.727395 -0.777315 -10.172333 7.163294 -15.478759 -63.252497 -0.000002 -39.799403 -0.000025 0.000000 0.000000 0.000000 1.554472 0.814354 0.264976 0.589089 6.841262 12.253694 15.175150 10.404250 56.827051 -0.000003 47.078308 0.000009 0.000000 0.000000 0.000000 
-232.379883 94.038116 -7.399818 0.000000 0.000000 0.000000 -0.020962 -2.017021 0.242822 -16.892202 13.966890 12.710121 19.446269 -10.115594 -0.089222 -6.513799 -10.626069 -8.206144 0.000000 0.000000 0.000000 -0.020962 -2.017021 0.242822 -7.707720 -8.346337 -10.784083 20.368089 0.752881 3.803553 -13.293619 -2.811267 5.416162 0.000000 0.000000 0.000000 -0.020962 -2.017021 0.242822 0.000000 0.000000 0.000000 1.332999 0.398521 0.548798 1.527572 0.922643 0.254914 0.000000 0.000000 0.000000 1.528921 0.922327 0.254143 0.893166 -0.289388 -0.163612 0.000000 0.000000 0.000000 1.528921 0.922327 0.254143 0.740358 -0.205376 -9.435611 7.144497 -14.566546 -63.391327 -0.000006 -46.117430 -0.000024 0.000000 0.000000 0.000000 1.528921 0.922327 0.254143 0.620820 6.744480 11.593347 15.531155 10.302773 55.912840 0.000009 52.232127 -0.000010 0.000000 0.000000 0.000000 
-232.321793 94.060768 -7.512989 0.000000 0.000000 0.000000 0.093559 -2.019079 0.266415 -17.012633 13.841354 12.632922 19.328850 -10.116619 -0.077360 -6.407084 -10.504283 -8.373948 0.000000 0.000000 0.000000 0.093559 -2.019079 0.266415 -7.894896 -8.330874 -10.791211 20.359513 0.757152 3.723626 -13.356218 -2.810347 5.464117 0.000000 0.000000 0.000000 0.093559 -2.019079 0.266415 0.000000 0.000000 0.000000 1.247613 0.459222 0.581942 1.474142 1.049105 0.244177 0.000000 0.000000 0.000000 1.474959 1.050315 0.238232 0.942953 -0.283663 -0.156165 0.000000 0.000000 0.000000 1.474959 1.050315 0.238232 0.742790 0.410772 -8.702621 6.708958 -13.853790 -63.740063 -0.000002 -52.254560 0.000015 0.000000 0.000000 0.000000 1.474959 1.050315 0.238232 0.650621 6.657735 10.923947 15.612971 9.985264 55.028027 -0.000020 57.559678 0.000018 0.000000 0.000000 0.000000 
-232.256927 94.066498 -7.653297 0.000000 0.000000 0.000000 0.294727 -1.971841 0.291531 -17.294338 13.657112 12.543354 19.310702 -10.118901 -0.066067 -6.363918 -10.386483 -8.496970 0.000000 0.000000 0.000000 0.294727 -1.971841 0.291531 -8.218406 -8.303092 -10.803079 20.425319 0.728603 3.643312 -13.425956 -2.822914 5.519192 0.000000 0.000000 0.000000 0.294727 -1.971841 0.291531 0.000000 0.000000 0.000000 1.135537 0.516467 0.627253 1.400889 1.170479 0.233746 0.000000 0.000000 0.000000 1.401144 1.172784 0.219257 0.998732 -0.279940 -0.154893 0.000000 0.000000 0.000000 1.401144 1.172784 0.219257 0.731414 1.032775 -8.044757 5.696153 -13.461056 -64.194072 0.000008 -57.673632 0.000010 0.000000 0.000000 0.000000 1.401144 1.172784 0.219257 0.677807 6.544842 10.254179 15.269716 9.517199 54.259651 0.000005 62.743470 -0.000023 0.000000 0.000000 0.000000 
-232.182724 94.054634 -7.821739 0.000000 0.000000 0.000000 0.574646 -1.837237 0.312691 -17.753975 13.401165 12.439800 19.406396 -10.122137 -0.044645 -6.374705 -10.303549 -8.586787 0.000000 0.000000 0.000000 0.574646 -1.837237 0.312691 -8.643245 -8.260517 -10.810462 20.557853 0.623413 3.563018 -13.520325 -2.853004 5.589861 0.000000 0.000000 0.000000 0.574646 -1.837237 0.312691 0.000000 0.000000 0.000000 1.018378 0.546496 0.688562 1.325836 1.258945 0.226371 0.000000 0.000000 0.000000 1.325620 1.262211 0.202447 1.054071 -0.278685 -0.160175 0.000000 0.000000 0.000000 1.325620 1.262211 0.202447 0.709522 1.596733 -7.520505 4.034817 -13.354437 -64.635228 0.000033 -62.074344 0.000033 0.000000 0.000000 0.000000 1.325620 1.262211 0.202447 0.701466 6.393126 9.593137 14.403880 8.966723 53.653755 -0.000033 67.534616 0.000031 0.000000 0.000000 0.000000 
-232.097549 94.027512 -8.022343 0.000000 0.000000 0.000000 0.919969 -1.587132 0.315248 -18.405261 13.054120 12.332108 19.609704 -10.124761 0.000458 -6.382421 -10.279734 -8.687214 0.000000 0.000000 0.000000 0.919969 -1.587132 0.315248 -9.126676 -8.192865 -10.784431 20.722169 0.380998 3.469629 -13.621343 -2.883015 5.692202 0.000000 0.000000 0.000000 0.919969 -1.587132 0.315248 0.000000 0.000000 0.000000 0.918221 0.533270 0.780428 1.267566 1.299979 0.223151 0.000000 0.000000 0.000000 1.266970 1.304941 0.194742 1.100895 -0.280598 -0.168688 0.000000 0.000000 0.000000 1.266970 1.304941 0.194742 0.685505 2.033193 -7.164944 1.762656 -13.388619 -64.988567 0.000047 -65.360997 0.000061 0.000000 0.000000 0.000000 1.266970 1.304941 0.194742 0.720166 6.201172 8.962570 12.979068 8.409425 53.186403 0.000014 71.755392 -0.000025 0.000000 0.000000 0.000000 
-232.000046 93.986122 -8.261391 0.000000 0.000000 0.000000 1.328823 -1.225107 0.278841 -19.267299 12.604476 12.237397 19.907392 -10.124778 0.069949 -6.312545 -10.316453 -8.814812 0.000000 0.000000 0.000000 1.328823 -1.225107 0.278841 -9.662012 -8.089930 -10.690773 20.874257 -0.024568 3.342956 -13.662374 -2.895415 5.838647 0.000000 0.000000 0.000000 1.328823 -1.225107 0.278841 0.000000 0.000000 0.000000 0.852072 0.479886 0.924925 1.239459 1.299764 0.233991 0.000000 0.000000 0.000000 1.238628 1.307031 0.200926 1.129787 -0.286492 -0.175509 0.000000 0.000000 0.000000 1.238628 1.307031 0.200926 0.668157 2.278995 -6.992369 -1.021967 -13.419017 -65.219359 0.000010 -67.550059 0.000019 0.000000 0.000000 0.000000 1.238628 1.307031 0.200926 0.732163 5.963984 8.394054 11.004842 7.925343 52.782558 -0.000038 75.304816 0.000045 0.000000 0.000000 0.000000 
-231.890381 93.927986 -8.544674 0.000000 0.000000 0.000000 1.808200 -0.797458 0.200259 -20.328885 12.075979 12.154498 20.262226 -10.121201 0.139714 -6.109901 -10.388476 -8.914869 0.000000 0.000000 0.000000 1.808200 -0.797458 0.200259 -10.307884 -7.958940 -10.536218 21.011571 -0.522271 3.176251 -13.553079 -2.909276 6.019514 0.000000 0.000000 0.000000 1.808200 -0.797458 0.200259 0.000000 0.000000 0.000000 0.831385 0.410670 1.123440 1.249504 1.281226 0.255783 0.000000 0.000000 0.000000 1.248295 1.291307 0.217629 1.132469 -0.296881 -0.177030 0.000000 0.000000 0.000000 1.248295 1.291307 0.217629 0.663493 2.279584 -6.997303 -4.209684 -13.371209 -65.290762 -0.000011 -68.774309 -0.000018 0.000000 0.000000 0.000000 1.248295 1.291307 0.217629 0.736084 5.671334 7.923586 8.533378 7.582043 52.359062 0.000167 78.170934 -0.000181 0.000000 0.000000 0.000000 
